<?xml version="1.0" encoding="UTF-8"?> <svg xmlns="http://www.w3.org/2000/svg" xmlns:xlink="http://www.w3.org/1999/xlink" version="1.1" id="Layer_1" x="0px" y="0px" viewBox="0 0 200 200" style="enable-background:new 0 0 200 200;" xml:space="preserve"> <style type="text/css"> .st0{fill:#FFFFFF;} .st1{fill:#7F4692;} .st2{fill:#48AE9C;} .st3{fill:#1D1D1B;} </style> <g> <circle class="st0" cx="100" cy="100" r="100"></circle> <g> <g> <path class="st1" d="M47.9,65.7c0,0,20.6,70.5,23.7,79.7c4.3,12.9,11.6,14.5,11.6,14.5l73.6-23.5c0,0-3.7-1.3-7.1-7.1 c-3.4-5.8-26.7-84.6-26.7-84.6l4.1-1.6c0,0-0.4-4.2-2.4-5.6c-2.1-1.4-3.5-3.4-16.6-0.8C40.8,49.8,43.7,53.8,47.9,65.7z"></path> </g> <g> <circle class="st0" cx="66.7" cy="92.5" r="1.4"></circle> </g> <g> <path class="st0" d="M51,56.7c0,0,3.2-0.3,5.4,2.1c2.2,2.4-0.1,5.8-0.1,5.8l66.2-23.2c0,0,2.2-4.4-7-2.6C65,48.5,51,56.7,51,56.7 z"></path> </g> <g> <path class="st0" d="M64.3,80.4c-0.4,0-0.7-0.2-0.9-0.6c-0.2-0.5,0.1-1,0.5-1.2c0.1,0,12.1-4.7,29.1-8.7c17-4,26.4-5.2,26.5-5.2 c0.5-0.1,1,0.3,1.1,0.8c0.1,0.5-0.3,1-0.8,1.1c-0.1,0-9.4,1.2-26.3,5.2c-16.8,4-28.7,8.6-28.9,8.6C64.6,80.4,64.4,80.4,64.3,80.4 z"></path> </g> <g> <path class="st0" d="M72.7,91.3c-0.4,0-0.7-0.2-0.9-0.6c-0.2-0.5,0-1,0.5-1.3c0.5-0.2,11.4-4.9,19.2-5.6c0.5,0,1,0.3,1,0.9 c0,0.5-0.3,1-0.9,1c-7.5,0.6-18.5,5.4-18.6,5.4C73,91.3,72.8,91.3,72.7,91.3z"></path> </g> <g> <circle class="st0" cx="69.7" cy="100.6" r="1.4"></circle> </g> <g> <path class="st0" d="M75.7,99.5c-0.4,0-0.7-0.2-0.9-0.6c-0.2-0.5,0-1,0.5-1.3c0.5-0.2,11.4-4.9,19.2-5.6c0.5,0,1,0.3,1,0.9 c0,0.5-0.3,1-0.9,1c-7.5,0.6-18.5,5.4-18.6,5.4C75.9,99.4,75.8,99.5,75.7,99.5z"></path> </g> <g> <circle class="st0" cx="72" cy="108.2" r="1.4"></circle> </g> <g> <path class="st0" d="M77.9,107c-0.4,0-0.7-0.2-0.9-0.6c-0.2-0.5,0-1,0.5-1.3c0.5-0.2,11.4-4.9,19.2-5.6c0.5,0,1,0.3,1,0.9 c0,0.5-0.3,1-0.9,1c-7.5,0.6-18.5,5.4-18.6,5.4C78.2,107,78.1,107,77.9,107z"></path> </g> <g> <path class="st0" d="M59.5,72.7c-0.4,0-0.7-0.2-0.9-0.6c-0.2-0.5,0-1,0.5-1.3c1-0.4,20.5-7.6,28-8.3c0.5,0,1,0.3,1,0.9 c0,0.5-0.3,1-0.9,1c-7.2,0.6-26.5,7.8-27.4,8.1C59.7,72.7,59.6,72.7,59.5,72.7z"></path> </g> <g> <path class="st0" d="M77.1,127.1c-0.4,0-0.8-0.3-0.9-0.8c-0.1-0.5,0.2-1,0.8-1.1c0,0,2.1-0.4,4.4-1.9c-0.7-1.5-0.7-3.5,0.3-5.6 c1-2.3,2.3-2.7,3-2.7c0,0,0,0,0,0c1,0,1.9,0.7,2.3,1.7c0.6,1.3,0.5,3.6-1.4,5.5c-0.5,0.5-0.9,0.9-1.4,1.3c1,0.4,2.4,0.2,3.8-0.6 c1.9-1,3.4-2.1,4.7-3.2c-0.2-0.2-0.3-0.4-0.5-0.6c-0.4-0.7-1.6-3.2,1.7-6.1c1.7-1.5,2.8-1.5,3.5-1.2c0.7,0.3,1.1,1,1.1,1.8 c0.1,1.5-0.9,3.5-2.7,5.6c0.9,0.2,2,0.1,3-0.4c1.7-0.8,2.9-2.2,4.1-3.5c1.6-1.9,3.3-3.9,6.4-3.8c3.5,0.1,7.7-2.4,7.7-2.4 c0.5-0.3,1-0.1,1.3,0.3c0.3,0.5,0.1,1-0.3,1.3c-0.2,0.1-4.7,2.8-8.8,2.7c-2.2-0.1-3.4,1.3-4.9,3.1c-1.2,1.4-2.6,3-4.7,4 c-1.8,0.8-3.8,0.8-5.3,0.1c-1.4,1.3-3.2,2.6-5.4,3.8c-2.4,1.3-4.8,1.3-6.4,0.1c-2.7,1.7-5.1,2.2-5.3,2.3 C77.2,127.1,77.1,127.1,77.1,127.1z M84.6,117c-0.2,0-0.8,0.3-1.3,1.5c-0.6,1.4-0.8,2.7-0.4,3.7c0.4-0.4,0.9-0.8,1.3-1.2 c1.3-1.3,1.3-2.7,1-3.5C85,117.2,84.8,117,84.6,117C84.6,117,84.6,117,84.6,117z M96.6,113.8c-0.2,0-0.7,0.2-1.4,0.9 c-1.5,1.3-2,2.6-1.3,3.6c0.1,0.1,0.2,0.2,0.2,0.3c1.3-1.4,2.1-2.8,2.4-3.8C96.6,114.2,96.6,113.9,96.6,113.8z"></path> </g> <g> <g> <path class="st2" d="M143.9,152.1c0.1,0.1,0.1,0.1,0.1,0.2C144.1,152.3,144,152.3,143.9,152.1z"></path> <path d="M144.4,153.3l-0.7-0.2c-0.3-0.1-0.5-0.3-0.5-0.5l-2.4-3.8l3.6,2.7c0.5,0.4,0.6,0.7,0.4,1.2L144.4,153.3z M144.2,151.6 l-0.1,0.4l0.4-0.3C144.5,151.7,144.4,151.6,144.2,151.6z"></path> </g> <g> <path class="st2" d="M140.3,126.2c-0.6-6.4-6.5-11.1-13.3-10.5c-6.8,0.6-11.9,6.2-11.3,12.6c0.5,5.8,5.6,10.3,11.6,10.5 l6.5,18.1l2.7-9.6c0,0,6.3,4,7.4,4.8c-0.8-1.3-4.4-11.1-6.6-17.4C139.4,132.5,140.5,129.4,140.3,126.2z"></path> <path d="M133.8,159.5l-7.2-19.9c-6.3-0.5-11.4-5.2-11.9-11.2c-0.6-6.8,4.8-12.8,12.1-13.5c7.2-0.6,13.6,4.4,14.2,11.2l0,0 c0.3,3.2-0.8,6.3-2.9,8.8c3.5,9.8,5.8,15.9,6.4,16.8l2.4,3.7l-3.5-2.7c-0.8-0.6-4.7-3.1-6.5-4.2L133.8,159.5z M128.1,116.5 c-0.4,0-0.7,0-1.1,0c-6.4,0.6-11.1,5.8-10.6,11.8c0.5,5.3,5.1,9.5,10.9,9.8l0.5,0l5.9,16.3l2.3-8.2l0.9,0.6 c0.2,0.1,3,1.9,5.1,3.3c-1.1-2.8-3-7.8-5.5-14.9l-0.2-0.4l0.3-0.3c2.1-2.2,3.1-5.1,2.8-8l0,0C139,120.7,134,116.5,128.1,116.5z"></path> </g> </g> <g> <path class="st3" d="M148.4,110.1c-0.3,0-0.6-0.1-0.7-0.4c-0.3-0.4-0.3-1,0.1-1.3l8.2-6.6c0.4-0.3,1-0.3,1.3,0.1 c0.3,0.4,0.3,1-0.1,1.3l-8.2,6.6C148.9,110,148.6,110.1,148.4,110.1z"></path> </g> <g> <path class="st3" d="M154.5,116.3c-0.5,0-0.9-0.4-1-0.9c0-0.5,0.4-1,0.9-1l11-0.5c0.5,0,1,0.4,1,0.9c0,0.5-0.4,1-0.9,1 L154.5,116.3C154.5,116.3,154.5,116.3,154.5,116.3z"></path> </g> <g> <path class="st3" d="M170.8,129c-0.1,0-0.1,0-0.2,0l-16.9-3.6c-0.5-0.1-0.8-0.6-0.7-1.1c0.1-0.5,0.6-0.8,1.1-0.7l16.9,3.6 c0.5,0.1,0.8,0.6,0.7,1.1C171.6,128.7,171.2,129,170.8,129z"></path> </g> <g> <path class="st0" d="M126.7,134.8c-2,0-3.7-0.9-5.1-2.5c-1.4-1.7-2-3.5-1.7-5.3c0.5-3.7,4.2-6.2,4.4-6.3c0.4-0.3,1-0.2,1.3,0.3 c0.3,0.4,0.2,1-0.3,1.3c0,0-3.2,2.2-3.6,5c-0.2,1.3,0.2,2.6,1.3,3.8c1.2,1.5,2.7,2,4.6,1.7c3.2-0.5,6.5-3.7,7.2-5.6 c0.2-0.5,0.7-0.7,1.2-0.6c0.5,0.2,0.7,0.7,0.6,1.2c-0.9,2.4-4.6,6.1-8.7,6.8C127.5,134.7,127.1,134.8,126.7,134.8z"></path> </g> </g> </g> </svg> 