<?xml version="1.0" encoding="UTF-8"?> <svg xmlns="http://www.w3.org/2000/svg" xmlns:xlink="http://www.w3.org/1999/xlink" version="1.1" id="Layer_1" x="0px" y="0px" viewBox="0 0 200 200" style="enable-background:new 0 0 200 200;" xml:space="preserve"> <style type="text/css"> .st0{fill:#FFFFFF;} .st1{fill:#48AE9C;} .st2{fill:#1D1D1B;} </style> <g> <circle class="st0" cx="100" cy="100" r="100"></circle> <g> <path class="st1" d="M83.9,57.9c0,0,15.7,2.9,31.5,2.4s27.5-1.6,27.5-1.6s1.6,2.2,2,8c0.3,4-0.2,6.2-0.2,6.2l-3.3,1.1 c0,0,3.8,25.9,3.8,37.4s-1.3,16.6-1.3,16.6l3.2,4.4c0,0-7.5,3.1-13.4,3.2c-4.8,0.1-11-13.6-22.7-6.6c-6.2,3.7-9.9,8-13.6,7.5 c-7.3-1-11.5-3.8-11.5-3.8l-7.5,1.1l3.8-8c0,0-1.1-6-0.4-18.4c0.5-8.4,3.3-34.8,3.3-34.8L81.2,71C81.2,71,81.7,63.2,83.9,57.9z"></path> <path class="st0" d="M88.3,73l3,0.2l4.9,58.9l-10-2.6c0,0-0.9-13.4,0-30.2C87,82.6,88.3,73,88.3,73z"></path> <path class="st2" d="M137,58.5c-0.2,0-0.4-0.1-0.6-0.2c-4.9-4.4-18.6-16.1-23.1-16.8c-1.2-0.2-4.5,0.6-13.4,7.6 c-5.1,4.1-9.7,8.3-9.7,8.4c-0.4,0.3-0.9,0.3-1.3,0c-0.3-0.4-0.3-0.9,0-1.3c1.9-1.8,18.5-17.3,24.5-16.4 c5.9,0.9,23.3,16.6,24.1,17.2c0.4,0.3,0.4,0.9,0.1,1.3C137.5,58.4,137.3,58.5,137,58.5z"></path> <circle class="st2" cx="99.1" cy="55.7" r="1.3"></circle> <circle class="st2" cx="106.2" cy="50.6" r="1.3"></circle> <circle class="st2" cx="112.6" cy="46.3" r="1.3"></circle> <circle class="st2" cx="113.3" cy="52.9" r="1.3"></circle> <circle class="st2" cx="106.5" cy="55.7" r="0.8"></circle> <path class="st2" d="M118,155.8c-26.5,0-30.7-8.2-30.9-8.5c-0.2-0.4-0.1-0.8,0.2-1c2.4-2.2,23.3-21.3,30.8-20.2 c7.4,1.1,29.3,20.4,30.2,21.2c0.3,0.3,0.4,0.7,0.2,1.1c-0.2,0.3-4.4,7.2-29.6,7.4C118.6,155.8,118.3,155.8,118,155.8z M89.1,147 c1.5,1.7,7.9,7.1,29.8,7c19.7-0.1,26-4.4,27.6-6c-3.8-3.3-22.4-19.3-28.6-20.2c-1.6-0.2-5.8,0.7-17.1,9.4 C95.5,141.4,90.7,145.6,89.1,147z"></path> <circle class="st2" cx="96.8" cy="144.2" r="1.3"></circle> <circle class="st2" cx="104" cy="139.1" r="1.3"></circle> <circle class="st2" cx="110.4" cy="134.9" r="1.3"></circle> <circle class="st2" cx="111.1" cy="141.5" r="1.3"></circle> <circle class="st2" cx="80.6" cy="145.2" r="1.3"></circle> <circle class="st2" cx="147.8" cy="155.1" r="1.3"></circle> <circle class="st2" cx="154.9" cy="150" r="1.3"></circle> <circle class="st2" cx="84.5" cy="151.9" r="1.3"></circle> <circle class="st2" cx="104.3" cy="144.2" r="0.8"></circle> <circle class="st2" cx="74.5" cy="150" r="0.8"></circle> <circle class="st2" cx="139.9" cy="157.6" r="0.8"></circle> <circle class="st2" cx="158.1" cy="155.4" r="0.8"></circle> <path class="st2" d="M58.1,139.2c-1.8,0-3.7-0.2-5.7-0.6c-12.9-2.5-19.6-8.2-20.5-12.8l0,0c-0.4-1.9,0-3.7,1.1-5.4 c3.1-4.4,11.4-6.6,17.8-7.6c3.6-0.6,12.4-1.4,17.6,3.1c2.6,2.3,3.8,5.5,3.7,9.6c-0.1,4.9-1.7,8.6-4.6,10.9 C65.3,138.3,62.1,139.2,58.1,139.2z M33.8,125.5c0.9,4.8,8.7,9.5,19,11.4c6,1.1,10.7,0.5,13.7-1.9c2.5-2,3.8-5.2,3.9-9.6 c0.1-3.5-0.9-6.3-3.1-8.2c-4.6-4.1-12.8-3.2-16.1-2.7c-8.5,1.4-14.4,3.8-16.6,6.9C33.8,122.7,33.5,124,33.8,125.5L33.8,125.5z"></path> <path class="st2" d="M71.3,129c-0.4,0-0.7-0.2-0.9-0.6c-0.1-0.5,0.1-1,0.6-1.1c2.7-0.8,4.7-2.4,5.8-4.6c1.9-3.6,1.7-9.2-0.6-16.2 c-1.9-5.9-5.7-12.7-10.1-14.7c-1.6-0.7-3.1-0.8-4.6-0.2c-4.7,1.9-7.9,10.6-7.9,21.1c0,0.5-0.4,0.9-0.9,0.9c0,0,0,0,0,0 c-0.5,0-0.9-0.4-0.9-0.9c-0.1-13.2,4.5-21,9-22.8c2-0.8,4-0.7,6.1,0.2c5.1,2.4,9.1,10,11,15.8c2.4,7.5,2.6,13.4,0.5,17.5 c-1.4,2.6-3.7,4.5-6.9,5.5C71.5,129,71.4,129,71.3,129z"></path> <path class="st2" d="M133.5,121.2l-6.8-9.3c0.7-0.8,3.1-3.9,3.6-6.3c1.1-5.6-0.7-8.7-0.7-8.8c-0.1-0.2-0.4-0.4-0.6-0.4 c-0.3,0-0.5,0-0.7,0.2c-0.1,0.1-2.8,2.6-3.6,7.1c-0.3,1.9-0.3,3.7-0.2,5l-3.6-4.9c0.1-0.2,3.2-3.8,3.8-6.5 c1.1-5.6-0.7-8.7-0.7-8.8c-0.1-0.2-0.4-0.4-0.6-0.4c-0.3,0-0.5,0-0.7,0.2c-0.1,0.1-2.8,2.6-3.6,7.1c-0.4,2.2-0.3,4.1-0.1,5.6 l-4-5.6c0.9-1.1,2.9-3.8,3.3-5.9c1.1-5.6-0.7-8.7-0.7-8.8c-0.1-0.2-0.4-0.4-0.6-0.4c-0.3,0-0.5,0-0.7,0.2 c-0.1,0.1-2.8,2.6-3.6,7.1c-0.3,1.6-0.3,3-0.2,4.3l-1.3-1.8c0-1.2-0.3-5-3.5-8.6c-3-3.4-5.9-3.9-6.1-3.9c-0.2,0-0.5,0-0.7,0.2 c-0.2,0.1-0.3,0.4-0.4,0.6c0,0.3-1.1,7.4,8.9,12.8c0.1,0.1,0.3,0.1,0.4,0.1l1.9,2.6c-1.3-0.7-3-1.4-5.1-1.8 c-4.5-0.8-7.8,0.8-7.9,0.9c-0.2,0.1-0.4,0.3-0.5,0.6s0,0.5,0.2,0.7c0.1,0.1,2.3,2.9,8,3.8c0.3,0.1,0.7,0.1,1,0.1 c2.7,0,6.2-1.3,6.4-1.3c0,0,0,0,0.1,0l3.6,5c-1.2-0.6-2.9-1.2-4.8-1.6c-4.5-0.8-7.8,0.8-7.9,0.9c-0.2,0.1-0.4,0.3-0.5,0.6 c-0.1,0.3,0,0.5,0.2,0.7c0.1,0.1,2.3,2.9,8,3.8c0.3,0.1,0.7,0.1,1,0.1c2.5,0,5.7-1.1,6.3-1.3l3.9,5.3c-1.3-0.7-3.1-1.5-5.3-1.9 c-4.5-0.8-7.8,0.8-7.9,0.9c-0.2,0.1-0.4,0.3-0.5,0.6c-0.1,0.3,0,0.5,0.2,0.7c0.1,0.1,2.3,2.9,8,3.8c0.3,0.1,0.7,0.1,1,0.1 c2.7,0,6.2-1.3,6.4-1.3c0,0,0.1,0,0.1-0.1l6.7,9.2c0.2,0.2,0.4,0.4,0.7,0.4c0.2,0,0.4-0.1,0.5-0.2 C133.7,122.1,133.8,121.6,133.5,121.2z M126.4,104c0.4-2.3,1.4-4,2.2-5c0.3,1.2,0.7,3.4,0.1,6.3c-0.3,1.2-1.3,2.9-2.2,4.2 C126.2,108.1,126,106.1,126.4,104z M120.7,95.7c0.4-2.3,1.4-4,2.2-5c0.3,1.2,0.7,3.4,0.1,6.3c-0.3,1.2-1.3,2.9-2.2,4.2 C120.5,99.9,120.3,97.9,120.7,95.7z M114.2,87.8c0.4-2.3,1.4-4,2.2-5c0.3,1.2,0.7,3.4,0.1,6.3c-0.3,1.2-1.3,2.9-2.2,4.2 C113.9,92,113.8,90,114.2,87.8z M102,79.5c1,0.4,2.5,1.3,4,3c2.1,2.4,2.8,4.8,3,6.3C103.2,85.4,102.1,81.4,102,79.5z M106.3,96.2 c-3-0.5-4.9-1.5-5.9-2.3c1.2-0.3,3.2-0.7,5.5-0.3c2.2,0.4,4,1.2,5.2,1.9C109.6,96,107.6,96.4,106.3,96.2z M112.5,104.3 c-3-0.5-4.9-1.5-5.9-2.3c1.2-0.3,3.2-0.7,5.5-0.3c2.2,0.4,4,1.2,5.2,1.9C115.7,104.1,113.7,104.5,112.5,104.3z M118.2,112.6 c-3-0.5-4.9-1.5-5.9-2.3c1.2-0.3,3.2-0.7,5.5-0.3c2.2,0.4,4,1.2,5.2,1.9C121.4,112.4,119.4,112.8,118.2,112.6z"></path> </g> </g> </svg> 