<?xml version="1.0" encoding="UTF-8"?> <svg xmlns="http://www.w3.org/2000/svg" xmlns:xlink="http://www.w3.org/1999/xlink" version="1.1" id="Layer_1" x="0px" y="0px" viewBox="0 0 200 200" style="enable-background:new 0 0 200 200;" xml:space="preserve"> <style type="text/css"> .st0{fill:#FFFFFF;} .st1{fill:#1D1D1B;} .st2{fill:#7F4692;} .st3{fill:#48AE9C;} </style> <g> <circle class="st0" cx="100" cy="100" r="100"></circle> <g> <path class="st1" d="M62.7,165c-0.1,0-0.2,0-0.2,0c-0.5-0.1-0.8-0.7-0.7-1.2c0.1-0.3,0.4-1,1.4-3c1.4-2.9,3.9-7.9,5.6-12.2 c2.8-7.2,2-8.3,1.9-8.4c-0.1-0.1-0.6-0.2-2,0.5c-0.5,0.2-1,0.5-1.5,0.8c-9.8,5.2-30.1,16.2-37.6,11c-2.3-1.6-3.3-4.5-2.8-8.6 c1.4-11.6,10.6-23.9,18.8-34.8c5.9-7.9,11-14.7,11.7-19.3c0.4-2.7,0.5-6.6,0.6-10.8c0.1-4.5,0.2-9.1,0.6-13.1 c0.5-3.9,1.6-10.4,3.9-10.4c1.5,0,2,2.3,2.3,4.5c0.4,3.5,0.7,6.6,1,9.1c0.2,1.7,0.3,3.4,0.5,4.7c0-0.1,0.1-0.3,0.1-0.4 c2.5-11.7,6.8-23.9,10.2-23.2c1.5,0.3,1.9,2.4,1.1,6.6L77,59c-1,5.1-2,10.7-2.5,14.2c2.8-6.1,5.2-10.8,7.1-14 c2.9-5,4.1-5.8,5.2-5.5c1.3,0.3,1.3,2,1.1,3.7c-0.3,3.5-2.6,9.2-4.5,13.8c-0.6,1.6-1.3,3.3-1.8,4.7c0,0,0,0,0,0 c2.7-2.5,5.7-5.4,8.6-4.9c1.5,0.2,2.8,1.3,3.7,3.2c1.9,3.6,4,12,1.8,13.5c-0.5,0.3-1,0.4-1.5,0.1c0,0.2-0.1,0.5-0.2,0.7 c-1.7,3.9-4.6,5.6-7.8,7.7c-2.2,1.4-4.7,2.9-7.3,5.4c-1.3,1.3-4.4,5.3-8.1,10.4c3.9-2.6,7.5-4.7,9.8-5.7c5.8-2.6,9.4-3.2,11.5-1.8 c2,1.3,2.2,3.9,2.2,6c0,4.6,0.6,5.1,0.7,5.2c0.1,0,0.8,0.1,3.7-3.1c0.2-0.2,0.4-0.5,0.6-0.7c1.6-1.9,3.3-3.8,5.1-3.3 c1.4,0.4,2.2,2,2.7,5.2c0.2,1.2,0.6,2,1,2.1c0.3,0.1,2.3,0.2,7.7-6.9c0.3-0.5,0.6-0.9,0.9-1.3c2.4-3.2,3.6-5,10.8-5.7 c5.6-0.5,12.6-0.5,17.4,3.9c3.6,3.3,5.3,8.7,5.2,16.1c-0.3,18.6-7.2,40.2-7.3,40.4c-0.2,0.5-0.7,0.8-1.2,0.6 c-0.5-0.2-0.8-0.7-0.6-1.2c0.1-0.2,6.9-21.6,7.2-39.9c0.1-6.8-1.4-11.7-4.5-14.7c-4.2-3.9-10.7-3.9-15.9-3.4 c-6.3,0.6-7.2,1.8-9.4,4.9c-0.3,0.4-0.6,0.8-1,1.3c-6.4,8.5-8.9,7.8-9.7,7.6c-1.3-0.3-2.1-1.6-2.4-3.7c-0.5-3.4-1.3-3.6-1.3-3.6 c-0.6-0.2-2.3,1.8-3.1,2.7c-0.2,0.2-0.4,0.5-0.6,0.7c-2.3,2.6-4.2,4.3-5.8,3.7c-1.6-0.6-2-3.1-2-7c0-2.4-0.4-3.8-1.4-4.4 c-1.5-1-4.7-0.3-9.7,1.9c-3,1.4-8.4,4.7-13.8,8.4c-1.3,1.8-2.6,3.6-3.8,5.5c-5.1,7.4-11.6,12.4-14,10.8c-1.2-0.8-1-2.5,0.6-5 c1.5-2.3,8.6-7.8,15.8-12.7c5-7,9.6-13.1,11.3-14.8c2.7-2.7,5.3-4.3,7.6-5.7c3.1-1.9,5.6-3.5,7.1-6.8c0,0,0,0,0-0.1 c-1-0.2-4.8,0.8-9.4,3.4c-1.8,1-3.6,1.8-4.5,0.7c-0.7-0.9-0.9-2.4,5.3-9.8c2.3-2.7,3.7-3.7,5.1-3.5c1.4,0.2,2.1,1.6,2.9,3.2 c0.6,1.1,1.2,2.4,2.1,3.4c0.4,0.5,0.7,0.7,0.9,0.8c0.4-1.4-0.4-7-2.5-10.8c-0.7-1.3-1.5-2-2.4-2.2c-2-0.3-4.8,2.3-7,4.4 c-0.4,0.4-0.9,0.8-1.3,1.2c-0.3,0.3-1.2,1.1-2,0.5c-1.1-0.7-0.5-2.2,2-8.5c1.8-4.5,4-10.1,4.3-13.3c0.1-0.5,0.1-0.9,0.1-1.2 c-1.1,1.2-3.9,5.4-10.7,20c-0.5,1.1-1.1,2.4-2.2,2.1c-1-0.3-1.1-1.2-0.3-6.6c0.5-3.3,1.4-8,2.3-12.9l0.4-2.2 c0.5-2.5,0.4-3.7,0.3-4.2c-1.3,1.2-4.7,7.4-7.8,21.5c-0.7,3.1-1.1,4.4-2.2,4.3c-1.3-0.1-1.4-1.2-2.2-8.8c-0.3-2.5-0.6-5.6-1-9.1 c-0.2-1.3-0.3-2-0.5-2.4c-0.5,1-1.4,3.6-2,8.3c-0.5,3.9-0.5,8.5-0.6,12.9c-0.1,4.3-0.2,8.3-0.6,11.1c-0.8,5.1-6,12.1-12,20.2 C39.1,120.9,30,133,28.7,144c-0.4,3.4,0.2,5.6,1.9,6.8c6.6,4.5,26.9-6.4,35.6-11.1c0.5-0.3,1.1-0.6,1.5-0.8 c0.7-0.4,2.9-1.5,4.2-0.2c2.4,2.3-1,10.5-7.1,22.9c-0.6,1.2-1.2,2.4-1.3,2.7C63.5,164.7,63.1,165,62.7,165z M63,119.8 c-5.4,3.9-9.9,7.6-10.9,9.1c-0.9,1.4-1,2-1.1,2.3c1.3,0,6.4-3.3,11.3-10.3C62.5,120.5,62.7,120.1,63,119.8z M88.5,80.4 c-0.3,0-1.2,0.3-3.3,2.9c-3.6,4.2-4.7,6.2-5,7c0.4-0.1,0.9-0.4,1.8-0.8c2.6-1.4,7.2-3.6,10-3.6c-0.8-1.1-1.4-2.3-1.9-3.3 C89.5,81.6,89,80.4,88.5,80.4C88.6,80.4,88.6,80.4,88.5,80.4z"></path> <path class="st1" d="M118.5,168.5c-0.2,0-0.3,0-0.5-0.1c-0.5-0.3-0.6-0.8-0.4-1.3c10-17.9,12.9-39.3,12.9-39.6 c0.1-0.5,0.6-0.9,1.1-0.8c0.5,0.1,0.9,0.6,0.8,1.1c0,0.2-2.9,22.1-13.1,40.2C119.2,168.3,118.9,168.5,118.5,168.5z"></path> <path class="st1" d="M121.6,104.7c-0.1,0-0.2,0-0.3-0.1c-0.5-0.2-0.7-0.8-0.5-1.2L138.8,57c0.2-0.4,0.5-0.6,1-0.6 c0.1,0,6.5,0.4,12-4.1c2.7-2.2,3.6-4.5,2.6-6.8c-1.4-3.1-5.8-5.2-8.5-4.8c-1,0.1-1.9,0.4-2.9,0.6c-2.5,0.6-4.9,1.1-6.8-0.2 c-1.5-1-2.5-2.9-3.2-6.1c-0.2-0.9-0.6-1.5-1.2-1.9c-2.1-1.2-6.7,0.4-10.4,1.7c-3.7,1.3-6.6,2.3-8.2,1.3c-0.4-0.3-0.9-0.8-0.9-1.8 c0-0.8-0.4-1.3-1.2-1.5c-3-0.8-10.2,2.3-13.5,7.6c-0.8,1.2-1,2.3-0.8,3.1c0.4,1.4,2.4,2.4,4.1,3.2c1.9,0.9,3.7,1.8,3.7,3.5 c0,1.8-2.6,8.5-6.3,17.7c-1.6,4-3.2,8.1-3.3,8.8c-0.1,0.5-0.6,0.9-1.1,0.8c-0.5-0.1-0.9-0.6-0.8-1.1c0.2-0.9,1.4-3.9,3.5-9.2 c2.4-6.1,6.1-15.4,6.1-17c0-0.5-1.6-1.2-2.6-1.7c-2-1-4.5-2.2-5.1-4.4c-0.4-1.4-0.1-2.9,1-4.7c3.6-5.8,11.6-9.5,15.6-8.4 c1.6,0.4,2.6,1.6,2.7,3.3c0,0.1,0,0.2,0.1,0.3c0.7,0.5,4-0.7,6.4-1.5c4.3-1.5,9.2-3.2,12-1.6c1.1,0.6,1.8,1.7,2.1,3.2 c0.5,2.6,1.3,4.1,2.3,4.8c1.3,0.8,3.2,0.4,5.4-0.1c1-0.2,2-0.4,3-0.6c3.5-0.5,8.8,2,10.5,6c0.8,1.8,1.4,5.3-3.1,9 c-5.1,4.2-10.7,4.6-12.7,4.6c0,0,0,0,0,0l-17.8,45.7C122.4,104.5,122,104.7,121.6,104.7z"></path> <path class="st1" d="M126.3,91.8c-0.3,0-0.6-0.1-0.8-0.4l-4.2-5.6c-0.2-0.2-0.2-0.5-0.2-0.8c0.1-0.3,0.2-0.5,0.5-0.6 c0,0,5-2.8,5.7-6.7c0-0.2,0-0.3,0-0.3c-0.6-0.2-2.6,0.6-4.2,1.6c-0.4,0.2-0.8,0.2-1.1-0.1c-0.3-0.3-0.4-0.7-0.2-1.1l3.4-7.8 c0.2-0.5,0.8-0.7,1.3-0.5c0.5,0.2,0.7,0.8,0.5,1.3l-2.3,5.4c1.4-0.6,3-0.9,3.9-0.3c0.5,0.3,1,1,0.7,2.2c-0.6,3.7-4,6.4-5.7,7.5 l3.6,4.8c0.3,0.4,0.2,1-0.2,1.3C126.7,91.7,126.5,91.8,126.3,91.8z"></path> <path class="st1" d="M104.4,82.4c-1,0-2.1-0.1-3.2-0.5c-0.6-0.2-1-0.6-1.2-1.3c-0.7-2.7,4.7-9.2,6.4-11.1c0.3-0.4,1-0.4,1.4-0.1 c0.4,0.3,0.4,1,0.1,1.4c-3.5,3.9-6.2,8.2-6,9.3c2.6,0.8,5.5,0,5.5,0c0.5-0.2,1,0.1,1.2,0.6c0.2,0.5-0.1,1-0.6,1.2 C107.8,82,106.3,82.4,104.4,82.4z M101.9,80.2L101.9,80.2L101.9,80.2z"></path> <path class="st1" d="M100.9,89.3c-0.5,0-1.1-0.1-1.5-0.2c-0.5-0.2-0.8-0.7-0.6-1.2c0.2-0.5,0.7-0.8,1.2-0.6 c0.4,0.1,1.4,0.3,1.6-0.1c0,0,0,0,0-0.1c-0.2-0.2-0.8-0.3-1.3-0.4c-0.5-0.1-0.9-0.5-0.9-1c0-0.5,0.5-0.9,1-0.9 c0.5,0,2.2,0.3,2.9,1.4c0.2,0.3,0.4,1-0.1,1.8C102.9,89,101.9,89.3,100.9,89.3z M101.8,87.1L101.8,87.1L101.8,87.1z"></path> <path class="st1" d="M115.5,75.6c-0.2,0-0.4,0-0.6,0c-1.3-0.1-2.3-0.6-3-1.4c-1-1.1-0.9-2.5-0.8-2.6c0-0.5,0.5-0.9,1-0.9 c0.5,0,0.9,0.5,0.9,1c0,0.4,0,1.8,2.1,1.9c2.7,0.2,4.6-1.7,4.7-1.7c0.4-0.4,1-0.4,1.4,0c0.4,0.4,0.4,1,0,1.4 C121,73.4,118.8,75.6,115.5,75.6z"></path> <path class="st1" d="M101.1,72.1c-0.3,0-0.6,0-0.9-0.1c-0.9-0.2-1.3-0.7-1.4-1.1c-0.5-1,0-2.2,0.1-2.4c0.2-0.5,0.8-0.7,1.3-0.4 c0.5,0.2,0.7,0.8,0.4,1.3c-0.1,0.2-0.2,0.6-0.1,0.7c0,0,0.1,0.1,0.2,0.1c0.9,0.2,2.1-0.5,2.4-0.7c0.4-0.3,1-0.2,1.3,0.2 c0.3,0.4,0.2,1-0.2,1.3C104.1,71.1,102.7,72.1,101.1,72.1z"></path> <path class="st1" d="M100.9,100.4c-0.6,0-1.1,0-1.6-0.1c-4-0.6-6-2.6-7.1-4.2c-1.1-1.7-1.3-3.3-1.3-3.4c-0.1-0.5,0.3-1,0.9-1 c0.5-0.1,1,0.3,1,0.9c0,0.2,0.6,5,6.8,5.9c6.6,1,19-6.3,19.1-6.4c0.5-0.3,1-0.1,1.3,0.3c0.3,0.5,0.1,1-0.3,1.3 C119.1,93.9,108.2,100.4,100.9,100.4z"></path> <path class="st1" d="M103,109c-5.9,0-10-1.1-10.3-1.1c-0.3-0.1-0.5-0.3-0.6-0.5c-0.1-0.2-0.1-0.5,0-0.8l3.2-8.1 c0.2-0.5,0.8-0.7,1.2-0.5c0.5,0.2,0.7,0.8,0.5,1.2l-2.8,7.1c3.5,0.7,14.8,2.3,26.3-2.7c0.5-0.2,1.1,0,1.3,0.5 c0.2,0.5,0,1.1-0.5,1.3C114.7,108.2,108.1,109,103,109z"></path> <path class="st2" d="M105.2,52.7c0,0,6.1,2.4,15.4,4s15.4,0.8,15.4,0.8l-2.6,10.1c0,0-9.7,1.2-19-0.6s-12.7-3.6-12.7-3.6 L105.2,52.7z"></path> <path class="st1" d="M75.4,104.2c-1.1,0-4.1-0.3-8.8-2.9c-5.8-3.2-9.4-7.8-9.6-8c-0.3-0.4-0.3-1,0.2-1.3c0.4-0.3,1-0.3,1.3,0.2 c0,0,3.5,4.4,9,7.5c5.3,2.9,8.1,2.7,8.1,2.7c0.5-0.1,1,0.3,1.1,0.8c0.1,0.5-0.3,1-0.8,1.1C75.9,104.2,75.7,104.2,75.4,104.2z"></path> <path class="st3" d="M92.3,119.4c0,0-3.4,9.9-7.9,25.7c-4.6,15.8-7.9,22.6-7.3,22.2s24.3,2.2,24.3,2.2l12.9-49.9L92.3,119.4z"></path> <circle class="st1" cx="94" cy="126.4" r="1.4"></circle> <circle class="st1" cx="89.1" cy="144.3" r="1.4"></circle> <circle class="st1" cx="83.3" cy="162.2" r="1.4"></circle> <circle class="st1" cx="107.5" cy="127.5" r="1.4"></circle> <circle class="st1" cx="103" cy="145.5" r="1.4"></circle> <circle class="st1" cx="97.7" cy="163.6" r="1.4"></circle> </g> </g> </svg> 